PathFileType	3	(X/Y/Z)	E:\ViconData\BIOM9541 2025\Week 7\Wed1100\Hanif 90 squat 5 Squat 01.trc
DataRate	CameraRate	NumFrames	NumMarkers	Units	OrigDataRate	OrigDataStartFrame	OrigNumFrames
200.0	200.0	6	19	mm	200.0	1622	1853	
Frame#	Time	C7			CLAV			RBAK			LASI			RASI			LPSI			RPSI			LTHI			LKNE			LTIB			LANK			LHEE			LTOE			RTHI			RKNE			RTIB			RANK			RHEE			RTOE			
		X1	Y1	Z1	X2	Y2	Z2	X3	Y3	Z3	X4	Y4	Z4	X5	Y5	Z5	X6	Y6	Z6	X7	Y7	Z7	X8	Y8	Z8	X9	Y9	Z9	X10	Y10	Z10	X11	Y11	Z11	X12	Y12	Z12	X13	Y13	Z13	X14	Y14	Z14	X15	Y15	Z15	X16	Y16	Z16	X17	Y17	Z17	X18	Y18	Z18	X19	Y19	Z19	
1622	8.105	356.86646	1309.9276	-1217.1248	202.46504	1256.299	-1199.5753	364.60049	1224.3665	-1358.0938	186.21353	880.65424	-1078.5471	176.80798	893.4444	-1339.5104	356.71307	934.68182	-1168.4971	355.33051	932.83496	-1243.0159	246.14948	556.30267	-1003.8323	268.6861	419.05933	-1006.5339	298.11722	221.81042	-966.5144	310.10959	62.958546	-972.75665	330.85074	47.27766	-1030.7959	162.0426	38.168301	-947.29828	233.83185	732.11487	-1406.0781	277.66629	422.16635	-1410.3977	294.69208	335.89905	-1434.4182	306.39493	73.063683	-1430.5305	324.42886	47.98576	-1366.3657	164.26091	40.383213	-1466.6288
1623	8.11	357.16403	1309.8967	-1217.1656	202.76683	1256.3948	-1199.3636	364.82266	1224.1451	-1358.0597	186.33684	880.65173	-1078.3412	176.82021	893.43634	-1339.3108	356.80289	934.70233	-1168.2812	355.36548	932.77527	-1242.8964	246.44559	556.27094	-1003.749	268.9776	419.0437	-1006.5312	298.28998	221.7572	-966.51007	310.12402	62.976494	-972.69611	330.86578	47.310291	-1030.7792	162.04675	38.181873	-947.25244	233.87064	732.14307	-1405.9147	277.80862	422.19781	-1410.2344	294.81702	335.95123	-1434.3065	306.4021	73.126366	-1430.5402	324.43207	48.012573	-1366.3092	164.24411	40.471222	-1466.6354
1624	8.115	357.51587	1309.8046	-1217.2788	203.31659	1256.0298	-1199.2843	365.13428	1223.9683	-1358.0674	186.47765	880.65442	-1078.1348	176.85223	893.41272	-1339.1155	356.85828	934.71698	-1168.1051	355.44861	932.74896	-1242.7719	246.65578	556.25079	-1003.6141	269.25134	419.04367	-1006.4984	298.43253	221.76175	-966.42456	310.24338	62.953785	-972.68152	330.88965	47.281246	-1030.7615	162.06799	38.177185	-947.26123	233.9194	732.11725	-1405.7612	277.9744	422.14658	-1410.0894	294.93884	335.95245	-1434.2043	306.42749	73.099998	-1430.522	324.43204	47.981266	-1366.2623	164.2802	40.438183	-1466.6205
1625	8.12	357.84976	1309.6694	-1217.3984	203.61234	1256.0741	-1199.5383	365.44641	1223.7712	-1358.0773	186.6089	880.69031	-1077.9572	176.94748	893.33746	-1338.9175	356.94867	934.66418	-1168.0465	355.60406	932.82874	-1242.6993	246.92191	556.2334	-1003.5284	269.51215	419.04071	-1006.4532	298.57147	221.74762	-966.39001	310.36426	62.918468	-972.72839	330.94086	47.229641	-1030.7516	162.12154	38.152191	-947.30865	233.98734	732.01495	-1405.5797	278.15463	422.08411	-1409.9344	295.09885	335.90756	-1434.1005	306.4819	73.037186	-1430.5269	324.49619	47.970825	-1366.2894	164.34201	40.413597	-1466.6533
1626	8.125	358.17798	1309.4933	-1217.5261	203.89792	1256.1636	-1199.7618	365.75763	1223.5231	-1358.1174	186.74036	880.75531	-1077.7697	176.99603	893.25696	-1338.7291	357.04501	934.61426	-1168.0437	355.6662	932.73254	-1242.5601	247.14362	556.26611	-1003.3845	269.75485	419.03714	-1006.3927	298.70163	221.76801	-966.32642	310.46869	62.89748	-972.69232	330.9556	47.15749	-1030.7327	162.13368	38.109867	-947.39056	234.03899	731.93134	-1405.4009	278.29877	422.0444	-1409.7777	295.22708	335.86429	-1433.9781	306.5166	73.022026	-1430.5275	324.53394	47.918671	-1366.3051	164.38213	40.366711	-1466.6292
1627	8.13	358.43887	1309.3658	-1217.5797	204.186	1256.209	-1199.8596	366.02887	1223.3083	-1358.1892	186.91304	880.79749	-1077.6313	177.03024	893.20813	-1338.5199	357.13461	934.59546	-1167.9315	355.70801	932.61932	-1242.4447	247.40417	556.20721	-1003.2941	270.03598	418.98712	-1006.3655	298.86026	221.73883	-966.28412	310.49506	62.913418	-972.6496	330.94366	47.135368	-1030.6934	162.12718	38.116249	-947.33301	234.01338	731.91974	-1405.2225	278.3985	422.05399	-1409.6403	295.34509	335.87784	-1433.8533	306.49957	72.998543	-1430.5176	324.52426	47.87418	-1366.3032	164.36252	40.394215	-1466.6498
